HIERARCHY
ROOT root
{
	OFFSET	0	13.1	24.9
	CHANNELS 6  Xposition Yposition Zposition Xrotation Yrotation Zrotation
	JOINT spine_1
	{
		OFFSET	0	9.99999	0
		CHANNELS 3  Xrotation Yrotation Zrotation
		JOINT spine_2
		{
			OFFSET	0	112	-10
			CHANNELS 3  Xrotation Yrotation Zrotation
			JOINT spine_3
			{
				OFFSET	0	206.5	19.3
				CHANNELS 3  Xrotation Yrotation Zrotation
				JOINT spine_4
				{
					OFFSET	0	110.4	14.6
					CHANNELS 3  Xrotation Yrotation Zrotation
					JOINT neck_1
					{
						OFFSET	0	71.8	-50.3
						CHANNELS 3  Xrotation Yrotation Zrotation
						JOINT neck_2
						{
							OFFSET	0	86.2	-25.8
							CHANNELS 3  Xrotation Yrotation Zrotation
							JOINT head_ee
							{
								OFFSET	0	179.8	-8.7
								CHANNELS 3  Xrotation Yrotation Zrotation
								End Site
								{
									OFFSET	1	0	0
								}
							}
						}
					}
					JOINT left_clavicle
					{
						OFFSET	-43.2	22.4	-70.8
						CHANNELS 3  Xrotation Yrotation Zrotation
						JOINT left_shoulder
						{
							OFFSET	-93.9	-5.79999	48.7
							CHANNELS 3  Xrotation Yrotation Zrotation
							JOINT left_elbow
							{
								OFFSET	-291.4	-30.8	15.2
								CHANNELS 3  Xrotation Yrotation Zrotation
								JOINT left_lowarm_twist
								{
									OFFSET	-110.7	-3.89999	13.6
									CHANNELS 3  Xrotation Yrotation Zrotation
									JOINT left_hand
									{
										OFFSET	-110.7	-3.89999	13.6
										CHANNELS 3  Xrotation Yrotation Zrotation
										JOINT left_ee
										{
											OFFSET	-80.8	-5.10001	12.1
											CHANNELS 3  Xrotation Yrotation Zrotation
											End Site
											{
												OFFSET	1	0	0
											}
										}
									}
								}
							}
						}
					}
					JOINT right_clavicle
					{
						OFFSET	43.2	22.4	-70.8
						CHANNELS 3  Xrotation Yrotation Zrotation
						JOINT right_shoulder
						{
							OFFSET	93.9	-5.79999	48.7
							CHANNELS 3  Xrotation Yrotation Zrotation
							JOINT right_elbow
							{
								OFFSET	291.4	-30.8	15.2
								CHANNELS 3  Xrotation Yrotation Zrotation
								JOINT right_lowarm_twist
								{
									OFFSET	110.7	-3.89999	13.6
									CHANNELS 3  Xrotation Yrotation Zrotation
									JOINT right_hand
									{
										OFFSET	110.7	-3.89999	13.6
										CHANNELS 3  Xrotation Yrotation Zrotation
										JOINT right_ee
										{
											OFFSET	80.8	-5.10001	12.1
											CHANNELS 3  Xrotation Yrotation Zrotation
											End Site
											{
												OFFSET	1	0	0
											}
										}
									}
								}
							}
						}
					}
				}
			}
		}
	}
	JOINT left_hip
	{
		OFFSET	-82.8	-127.5	0.300001
		CHANNELS 3  Xrotation Yrotation Zrotation
		JOINT left_knee
		{
			OFFSET	-28.2	-396.7	2.2
			CHANNELS 3  Xrotation Yrotation Zrotation
			JOINT left_ankle
			{
				OFFSET	-11.7	-411.3	35.4
				CHANNELS 3  Xrotation Yrotation Zrotation
				JOINT left_toes
				{
					OFFSET	0	-60	-88.6
					CHANNELS 3  Xrotation Yrotation Zrotation
					JOINT left_foot_ee
					{
						OFFSET	-22.5	-16.5	-42.2
						CHANNELS 3  Xrotation Yrotation Zrotation
						End Site
						{
							OFFSET	1	0	0
						}
					}
				}
			}
		}
	}
	JOINT right_hip
	{
		OFFSET	82.8	-127.5	0.300001
		CHANNELS 3  Xrotation Yrotation Zrotation
		JOINT right_knee
		{
			OFFSET	28.2	-396.7	2.2
			CHANNELS 3  Xrotation Yrotation Zrotation
			JOINT right_ankle
			{
				OFFSET	11.7	-411.3	35.4
				CHANNELS 3  Xrotation Yrotation Zrotation
				JOINT right_toes
				{
					OFFSET	0	-60	-88.6
					CHANNELS 3  Xrotation Yrotation Zrotation
					JOINT right_foot_ee
					{
						OFFSET	22.5	-16.5	-42.2
						CHANNELS 3  Xrotation Yrotation Zrotation
						End Site
						{
							OFFSET	1	0	0
						}
					}
				}
			}
		}
	}
}
MOTION
Frames: 5
Frame Time: 0.02
2465.49068098 766.728 -1495.92572988 16.6749090069 71.3490618139 -22.6595407673 -1.39289 0.810482 4.49957 -1.38178 0.522824 4.5419 -1.32988 -0.549529 4.53875 -1.35857 0.173405 4.56855 -17.3974 17.2827 -10.5997 -19.1758 38.9373 -2.66862 -0.0 0.0 -0.0 -3.12069 23.0766 -1.63937 -11.408 -13.4525 65.4341 0.844959 -22.7124 0.169705 3.8558 0.119805 -0.477838 1.03583 5.97427 9.31137 -0.0 0.0 -0.0 12.5321 20.5146 -25.1222 -2.19901 30.9539 -63.6208 1.44058 35.5102 -0.461296 39.5848 0.327842 4.94687 1.49371 -21.0889 -17.5487 0.0 0.0 0.0 -2.77047 11.3574 3.03403 -25.7959 0.182 3.92113 23.4973 19.9683 -3.23946 -32.3677 0.0 0.0 -0.0 0.0 -0.0 -1.28757 11.6466 -1.48902 3.14828 0.142391 0.462026 -0.285085 12.1006 -0.0445786 -13.1815 0.0 0.0 0.0 0.0 0.0 
2458.2189065 761.265 -1494.26843338 17.966031371 72.3557794973 -23.7403865191 -1.38113 0.845034 4.39143 -1.37058 0.564166 4.43617 -1.31683 -0.483498 4.44567 -1.34433 0.223958 4.46623 -16.5868 16.8323 -7.79248 -18.0913 36.621 -0.60701 -0.0 0.0 -0.0 -3.45213 23.4175 -2.0275 -11.6686 -13.2362 65.2319 0.888105 -23.7464 0.186723 4.51453 0.137043 -0.560218 0.847972 7.07518 8.49712 -0.0 0.0 -0.0 12.5988 19.9647 -25.3166 -2.52222 31.2163 -63.4655 1.47548 36.1612 -0.481734 38.4364 0.270442 4.81169 1.23998 -22.71 -16.4798 0.0 0.0 0.0 -2.2239 8.3024 2.10447 -22.3465 0.260388 3.39767 23.9247 17.1957 -3.25879 -33.4348 0.0 0.0 -0.0 0.0 -0.0 -2.38906 12.9844 -1.23248 3.92958 0.181651 0.575448 -0.817758 14.9154 -0.13061 -15.3725 0.0 0.0 0.0 0.0 0.0 
2450.23096827 766.951 -1497.91724965 14.6924782991 70.8375993812 -20.2075440092 -1.28781 0.717395 4.50079 -1.27664 0.429846 4.53722 -1.23273 -0.631472 4.51362 -1.26113 0.0885283 4.55663 -16.1362 17.5455 -8.32094 -17.7139 38.3104 -0.926954 -0.0 0.0 -0.0 -3.60277 23.1513 -2.29309 -10.6092 -13.6818 66.5128 0.730681 -19.8981 0.128171 5.04306 0.150187 -0.626454 0.873255 7.46198 8.81352 -0.0 0.0 -0.0 12.5112 20.1506 -25.1006 -1.52726 31.9831 -64.6497 1.47571 36.1655 -0.481869 39.0379 0.300168 4.88263 1.77919 -19.7044 -18.9303 0.0 0.0 0.0 -0.793357 9.70456 0.685422 -15.5205 0.322087 2.35274 23.3435 12.6696 -3.1528 -31.7379 0.0 0.0 -0.0 0.0 -0.0 -3.18694 12.8168 -1.3421 5.51787 0.266225 0.804348 0.295947 16.7728 0.0478214 -13.8064 0.0 0.0 0.0 0.0 0.0 
2444.67401509 766.54 -1504.277245 11.4201886639 68.5588057676 -16.5956861036 -1.41082 0.907407 4.38008 -1.40037 0.627133 4.42881 -1.34161 -0.422284 4.45297 -1.36916 0.285557 4.4638 -15.663 17.6182 -7.92799 -17.1584 38.261 -0.719866 -0.0 0.0 -0.0 -3.81099 22.9862 -2.61926 -9.61107 -13.6312 67.0579 0.770754 -20.8972 0.142138 6.12453 0.175174 -0.762341 0.806442 8.4548 8.75829 -0.0 0.0 -0.0 12.2815 20.913 -24.5135 -1.34008 32.3555 -64.3869 1.47442 36.1415 -0.481103 39.1574 0.306163 4.89669 2.07738 -16.6701 -19.9444 0.0 0.0 0.0 -0.310856 9.47633 0.169267 -11.3189 0.29808 1.70868 21.1459 9.02223 -2.87349 -31.9594 0.0 0.0 -0.0 0.0 -0.0 -3.00213 14.844 -1.1695 6.0613 0.296619 0.882129 -1.68869 19.2883 -0.280376 -14.1662 0.0 0.0 0.0 0.0 0.0 
2407.7029687 766.618 -1552.6139174 6.69220142676 57.616313146 -10.8793367649 -0.995671 0.408283 4.22772 -0.98574 0.138683 4.24509 -0.968217 -0.828483 4.16591 -0.992391 -0.160777 4.24431 -13.6161 16.0052 -13.0461 -14.3173 38.4214 -7.16457 -0.0 0.0 -0.0 -2.61411 22.4841 -1.04758 -8.23549 -12.5624 64.4638 1.43625 -35.4288 0.458785 10.9957 0.255758 -1.37917 0.558214 17.1194 10.4143 -0.0 0.0 -0.0 12.6415 21.5015 -25.2976 -12.0225 32.1522 -62.2615 1.28743 32.5264 -0.375588 42.9573 0.511951 5.33693 1.45348 -11.4724 -14.1184 0.0 0.0 0.0 -3.03047 14.0689 2.14807 -12.2859 0.307788 1.85673 31.8757 -8.97777 -4.22661 -27.553 0.0 0.0 -0.0 0.0 -0.0 -4.72579 19.5098 0.614033 3.96567 0.183503 0.580674 7.10078 11.0494 1.07841 -23.3116 0.0 0.0 0.0 0.0 0.0 
